<?xml version="1.0" encoding="iso-8859-1"?>
<svg version="1.1" id="Capa_1" xmlns="http://www.w3.org/2000/svg" xmlns:xlink="http://www.w3.org/1999/xlink" x="0px" y="0px"
	 viewBox="0 0 511.993 511.993" style="enable-background:new 0 0 511.993 511.993;" xml:space="preserve">
<g>
	<g>
		<path d="M505.414,19.02c-1.675-6.044-6.402-10.765-12.446-12.446C406.203-17.507,329.166,29.976,297.312,61.83
			c-0.238,0.238-0.566,0.59-0.787,0.841c-4.184,4.685-56.747,57.283-86.228,86.771l-77.192-25.208
			c-6.408-2.086-13.43-0.399-18.192,4.357L60.073,183.43c-6.986,6.98-6.986,18.305,0,25.286l53.933,53.933l-29.822,50.041
			c-4.196,7.028-3.076,16.011,2.712,21.799l90.604,90.604c5.788,5.788,14.771,6.903,21.805,2.718l50.035-29.834l53.939,53.939
			c3.493,3.493,8.065,5.24,12.643,5.24s9.15-1.747,12.649-5.24l54.839-54.839c4.733-4.733,6.426-11.713,4.387-18.091l-24.701-77.24
			l87.063-87.069C482.018,182.816,529.507,105.761,505.414,19.02z M330.096,284.167c-4.733,4.733-6.426,11.713-4.387,18.091
			l24.701,77.24l-34.489,34.489l-51.137-51.137c-3.445-3.445-8.023-5.24-12.649-5.24c-3.147,0-6.307,0.829-9.15,2.521
			l-50.035,29.834l-70.921-70.915l29.828-50.041c4.19-7.028,3.07-16.011-2.718-21.799l-51.131-51.137l34.429-34.429l77.192,25.208
			c6.414,2.092,13.436,0.405,18.192-4.357c55.584-55.584,89.298-89.394,95.068-95.658c25.286-25.119,83.934-61.724,150.474-48.205
			c13.567,66.784-23.366,125.635-48.491,150.76L330.096,284.167z"/>
	</g>
</g>
<g>
	<g>
		<path d="M110.4,401.594c-6.98-6.986-18.305-6.986-25.286,0l-70.337,70.337c-6.986,6.98-6.986,18.306,0,25.286
			c3.487,3.493,8.065,5.24,12.643,5.24c4.578,0,9.156-1.747,12.643-5.24L110.4,426.88C117.386,419.9,117.386,408.574,110.4,401.594z
			"/>
	</g>
</g>
<g>
	<g>
		<path d="M154.51,445.704c-6.98-6.986-18.306-6.986-25.286,0l-35.765,35.765c-6.986,6.98-6.986,18.305,0,25.286
			c3.487,3.493,8.065,5.24,12.643,5.24c4.572,0,9.15-1.746,12.643-5.24l35.765-35.765
			C161.496,464.009,161.496,452.684,154.51,445.704z"/>
	</g>
</g>
<g>
	<g>
		<path d="M66.29,357.484c-6.98-6.986-18.305-6.986-25.286,0L5.24,393.249c-6.986,6.98-6.986,18.305,0,25.286
			c3.487,3.493,8.065,5.24,12.643,5.24c4.578,0,9.156-1.746,12.643-5.24L66.29,382.77C73.276,375.79,73.276,364.464,66.29,357.484z"
			/>
	</g>
</g>
<g>
	<g>
		<path d="M376.125,89.971c-25.303,0-45.892,20.589-45.892,45.898c0,25.309,20.589,45.898,45.892,45.898
			c25.309,0,45.898-20.588,45.898-45.898C422.023,110.56,401.434,89.971,376.125,89.971z M376.125,146.002
			c-5.579,0-10.127-4.548-10.127-10.133c0-5.585,4.542-10.133,10.127-10.133c5.585,0,10.133,4.548,10.133,10.133
			C386.258,141.454,381.716,146.002,376.125,146.002z"/>
	</g>
</g>
<g>
	<g>
		
			<rect x="175.554" y="221.85" transform="matrix(0.7055 -0.7087 0.7087 0.7055 -167.3202 230.2893)" width="35.764" height="189.247"/>
	</g>
</g>
<g>
</g>
<g>
</g>
<g>
</g>
<g>
</g>
<g>
</g>
<g>
</g>
<g>
</g>
<g>
</g>
<g>
</g>
<g>
</g>
<g>
</g>
<g>
</g>
<g>
</g>
<g>
</g>
<g>
</g>
</svg>
